<svg width="1920" height="1080" viewBox="0 0 1920 1080" fill="none" xmlns="http://www.w3.org/2000/svg">
<rect width="1920" height="1080" fill="white"/>
<path d="M778.329 556.329C780.059 551.373 781 546.046 781 540.5C781 513.99 759.51 492.5 733 492.5C706.49 492.5 685 513.99 685 540.5C685 553.617 690.261 565.505 698.789 574.169L747.479 525.479L778.329 556.329Z" fill="#10B981"/>
<path d="M769.561 571.603L747.479 549.521L712.899 584.101C719.013 586.925 725.823 588.5 733 588.5C747.644 588.5 760.757 581.942 769.561 571.603Z" fill="#10B981"/>
<path d="M810.536 565V514.6H835.16C837.704 514.6 840.032 514.984 842.144 515.752C844.304 516.52 846.152 517.6 847.688 518.992C849.224 520.336 850.424 521.968 851.288 523.888C852.152 525.808 852.584 527.92 852.584 530.224C852.584 533.392 851.672 536.224 849.848 538.72C848.072 541.216 845.696 543.064 842.72 544.264L853.88 565H842.216L832.352 545.704H820.976V565H810.536ZM834.224 523.6H820.976V537.136H834.224C836.576 537.136 838.448 536.512 839.84 535.264C841.28 534.016 842 532.384 842 530.368C842 528.352 841.28 526.72 839.84 525.472C838.448 524.224 836.576 523.6 834.224 523.6ZM854.848 546.28C854.848 543.544 855.352 541 856.36 538.648C857.416 536.248 858.832 534.184 860.608 532.456C862.432 530.68 864.568 529.288 867.016 528.28C869.464 527.272 872.08 526.768 874.864 526.768C877.648 526.768 880.264 527.272 882.712 528.28C885.16 529.288 887.272 530.68 889.047 532.456C890.872 534.184 892.288 536.248 893.296 538.648C894.352 541 894.88 543.544 894.88 546.28C894.88 549.016 894.352 551.584 893.296 553.984C892.288 556.336 890.872 558.376 889.047 560.104C887.272 561.832 885.16 563.2 882.712 564.208C880.264 565.216 877.648 565.72 874.864 565.72C872.08 565.72 869.464 565.216 867.016 564.208C864.568 563.2 862.432 561.832 860.608 560.104C858.832 558.376 857.416 556.336 856.36 553.984C855.352 551.584 854.848 549.016 854.848 546.28ZM874.864 557.152C877.744 557.152 880.192 556.096 882.208 553.984C884.224 551.872 885.232 549.304 885.232 546.28C885.232 543.208 884.224 540.616 882.208 538.504C880.192 536.392 877.744 535.336 874.864 535.336C871.984 535.336 869.536 536.392 867.52 538.504C865.504 540.616 864.496 543.208 864.496 546.28C864.496 549.304 865.504 551.872 867.52 553.984C869.536 556.096 871.984 557.152 874.864 557.152ZM919.584 557.08C921.264 557.08 922.824 556.744 924.264 556.072C925.752 555.4 927.168 554.344 928.512 552.904L934.416 559.024C932.496 561.136 930.192 562.792 927.504 563.992C924.816 565.144 922.032 565.72 919.152 565.72C916.416 565.72 913.824 565.216 911.376 564.208C908.976 563.2 906.888 561.832 905.112 560.104C903.384 558.376 902.016 556.336 901.008 553.984C900 551.584 899.496 549.016 899.496 546.28C899.496 543.544 900 541 901.008 538.648C902.016 536.248 903.384 534.184 905.112 532.456C906.888 530.68 908.976 529.288 911.376 528.28C913.824 527.272 916.416 526.768 919.152 526.768C922.128 526.768 924.984 527.368 927.72 528.568C930.456 529.72 932.784 531.352 934.704 533.464L928.656 539.872C927.312 538.384 925.872 537.256 924.336 536.488C922.8 535.72 921.144 535.336 919.368 535.336C916.536 535.336 914.136 536.392 912.168 538.504C910.248 540.616 909.288 543.208 909.288 546.28C909.288 549.352 910.272 551.92 912.24 553.984C914.256 556.048 916.704 557.08 919.584 557.08ZM939.544 565V514.6L949.408 512.44V543.328L965.608 527.488H976.768L959.2 544.696L977.848 565H965.248L949.408 547.864V565H939.544ZM991.321 566.728L991.897 565.36L977.281 527.488H988.153L997.441 553.048L1008.1 527.488H1018.75L1001.47 567.952C999.553 572.464 997.321 575.68 994.777 577.6C992.233 579.52 988.921 580.48 984.841 580.48C983.977 580.48 983.137 580.432 982.321 580.336C981.553 580.288 980.929 580.192 980.449 580.048V571.552C980.929 571.648 981.433 571.72 981.961 571.768C982.489 571.816 983.137 571.84 983.905 571.84C985.681 571.84 987.169 571.408 988.369 570.544C989.617 569.68 990.601 568.408 991.321 566.728ZM1038.37 565V514.6H1043.92V560.032H1073.94V565H1038.37ZM1083.48 522.016C1082.52 522.016 1081.68 521.656 1080.96 520.936C1080.24 520.216 1079.88 519.376 1079.88 518.416C1079.88 517.408 1080.24 516.568 1080.96 515.896C1081.68 515.176 1082.52 514.816 1083.48 514.816C1084.49 514.816 1085.33 515.176 1086 515.896C1086.72 516.568 1087.08 517.408 1087.08 518.416C1087.08 519.376 1086.72 520.216 1086 520.936C1085.33 521.656 1084.49 522.016 1083.48 522.016ZM1086.15 528.928V565H1080.82V528.928H1086.15ZM1095.23 565V528.928H1100.56V533.176C1101.95 531.544 1103.61 530.32 1105.53 529.504C1107.45 528.64 1109.58 528.208 1111.94 528.208C1116.02 528.208 1119.35 529.504 1121.94 532.096C1124.54 534.688 1125.83 538.048 1125.83 542.176V565H1120.58V543.256C1120.58 540.088 1119.66 537.568 1117.84 535.696C1116.02 533.824 1113.57 532.888 1110.5 532.888C1108.34 532.888 1106.39 533.368 1104.66 534.328C1102.98 535.288 1101.62 536.656 1100.56 538.432V565H1095.23ZM1139.51 528.928V550.672C1139.51 553.84 1140.42 556.36 1142.24 558.232C1144.07 560.104 1146.52 561.04 1149.59 561.04C1151.75 561.04 1153.67 560.56 1155.35 559.6C1157.08 558.592 1158.47 557.2 1159.52 555.424V528.928H1164.85V565H1159.52V560.824C1158.13 562.456 1156.48 563.68 1154.56 564.496C1152.68 565.312 1150.57 565.72 1148.22 565.72C1144.09 565.72 1140.73 564.424 1138.14 561.832C1135.55 559.24 1134.25 555.88 1134.25 551.752V528.928H1139.51ZM1169.74 565L1183.92 546.424L1170.46 528.928H1176.79L1187.02 542.464L1197.24 528.928H1203.36L1190.04 546.352L1204.3 565H1197.96L1186.94 550.312L1175.78 565H1169.74Z" fill="black"/>
<path d="M1209 527.812V519.988H1206.41V518.476H1209V515.428L1210.75 514.972V518.476H1214.38V519.988H1210.75V527.356C1210.75 527.996 1210.9 528.46 1211.18 528.748C1211.47 529.02 1211.94 529.156 1212.6 529.156C1212.94 529.156 1213.23 529.132 1213.49 529.084C1213.76 529.036 1214.05 528.956 1214.35 528.844V530.404C1214.05 530.516 1213.7 530.596 1213.32 530.644C1212.95 530.692 1212.59 530.716 1212.24 530.716C1211.2 530.716 1210.4 530.468 1209.84 529.972C1209.28 529.476 1209 528.756 1209 527.812ZM1216.28 530.5V518.476H1218.05V519.796C1218.5 519.284 1219.02 518.9 1219.61 518.644C1220.21 518.372 1220.86 518.236 1221.58 518.236C1222.41 518.236 1223.16 518.436 1223.81 518.836C1224.49 519.22 1225.01 519.748 1225.37 520.42C1225.87 519.684 1226.46 519.14 1227.15 518.788C1227.85 518.42 1228.64 518.236 1229.5 518.236C1230.8 518.236 1231.85 518.668 1232.67 519.532C1233.5 520.396 1233.92 521.516 1233.92 522.892V530.5H1232.17V523.252C1232.17 522.196 1231.89 521.356 1231.33 520.732C1230.77 520.108 1230.01 519.796 1229.05 519.796C1228.39 519.796 1227.79 519.964 1227.25 520.3C1226.7 520.636 1226.24 521.124 1225.85 521.764C1225.89 521.94 1225.91 522.124 1225.93 522.316C1225.96 522.492 1225.97 522.684 1225.97 522.892V530.5H1224.22V523.252C1224.22 522.196 1223.94 521.356 1223.38 520.732C1222.82 520.108 1222.07 519.796 1221.13 519.796C1220.49 519.796 1219.9 519.948 1219.37 520.252C1218.86 520.54 1218.42 520.972 1218.05 521.548V530.5H1216.28Z" fill="black"/>
</svg>
