<?xml version="1.0" encoding="UTF-8" standalone="no"?>
<svg
   width="16800.396"
   height="2903.0359"
   viewBox="0 0 16800.396 2903.0359"
   fill="none"
   version="1.1"
   id="svg12"
   sodipodi:docname="text-white.svg"
   inkscape:version="1.3.2 (091e20e, 2023-11-25)"
   xmlns:inkscape="http://www.inkscape.org/namespaces/inkscape"
   xmlns:sodipodi="http://sodipodi.sourceforge.net/DTD/sodipodi-0.dtd"
   xmlns="http://www.w3.org/2000/svg"
   xmlns:svg="http://www.w3.org/2000/svg">
  <defs
     id="defs12" />
  <sodipodi:namedview
     id="namedview12"
     pagecolor="#ffffff"
     bordercolor="#000000"
     borderopacity="0.25"
     inkscape:showpageshadow="2"
     inkscape:pageopacity="0.0"
     inkscape:pagecheckerboard="0"
     inkscape:deskcolor="#d1d1d1"
     inkscape:zoom="0.047882646"
     inkscape:cx="9032.5"
     inkscape:cy="1461.9075"
     inkscape:window-width="1392"
     inkscape:window-height="1027"
     inkscape:window-x="264"
     inkscape:window-y="25"
     inkscape:window-maximized="0"
     inkscape:current-layer="svg12" />
  <path
     d="M 0,2242.556 V 92.159896 h 1050.6269 c 108.54,0 207.87,16.384104 297.98,49.152104 92.16,32.768 171.01,78.848 236.55,138.24 65.53,57.344 116.73,126.976 153.6,208.896 36.86,81.92 55.29,172.032 55.29,270.336 0,135.168 -38.91,256.002 -116.73,362.492 -75.78,106.5 -177.16,185.35 -304.13,236.55 l 476.16,884.73 h -497.67 l -420.86103,-823.29 h -485.376 v 823.29 z M 1010.6869,476.16 H 445.43987 v 577.536 h 565.24703 c 100.35,0 180.23,-26.62 239.62,-79.872 61.44,-53.248 92.16,-122.88 92.16,-208.896 0,-86.016 -30.72,-155.648 -92.16,-208.896 -59.39,-53.248 -139.27,-79.872 -239.62,-79.872 z"
     fill="#ffffff"
     id="path1" />
  <path
     d="m 1890.6269,1443.836 c 0,-116.73 21.5,-225.28 64.51,-325.63 45.06,-102.4 105.47,-190.462 181.25,-264.19 77.82,-75.776 168.96,-135.168 273.41,-178.176 104.44,-43.008 216.06,-64.512 334.84,-64.512 118.79,0 230.4,21.504 334.85,64.512 104.45,43.008 194.56,102.4 270.34,178.176 77.82,73.728 138.24,161.79 181.25,264.19 45.05,100.35 67.58,208.9 67.58,325.63 0,116.74 -22.53,226.31 -67.58,328.71 -43.01,100.35 -103.43,187.39 -181.25,261.12 -75.78,73.73 -165.89,132.09 -270.34,175.1 -104.45,43.01 -216.06,64.51 -334.85,64.51 -118.78,0 -230.4,-21.5 -334.84,-64.51 -104.45,-43.01 -195.59,-101.37 -273.41,-175.1 -75.78,-73.73 -136.19,-160.77 -181.25,-261.12 -43.01,-102.4 -64.51,-211.97 -64.51,-328.71 z m 854.01,463.88 c 122.88,0 227.33,-45.06 313.35,-135.17 86.01,-90.11 129.02,-199.68 129.02,-328.71 0,-131.07 -43.01,-241.66 -129.02,-331.77 -86.02,-90.11 -190.47,-135.17 -313.35,-135.17 -122.88,0 -227.32,45.06 -313.34,135.17 -86.02,90.11 -129.02,200.7 -129.02,331.77 0,129.03 43,238.6 129.02,328.71 86.02,90.11 190.46,135.17 313.34,135.17 z"
     fill="#ffffff"
     id="path2" />
  <path
     d="m 4652.7169,1904.636 c 71.68,0 138.24,-14.33 199.68,-43 63.48,-28.68 123.9,-73.73 181.24,-135.17 l 251.91,261.12 c -81.92,90.11 -180.23,160.77 -294.91,211.97 -114.69,49.15 -233.48,73.72 -356.36,73.72 -116.73,0 -227.32,-21.5 -331.77,-64.51 -102.4,-43.01 -191.49,-101.37 -267.27,-175.1 -73.72,-73.73 -132.09,-160.77 -175.1,-261.12 -43.01,-102.4 -64.51,-211.97 -64.51,-328.71 0,-116.73 21.5,-225.28 64.51,-325.63 43.01,-102.4 101.38,-190.462 175.1,-264.19 75.78,-75.776 164.87,-135.168 267.27,-178.176 104.45,-43.008 215.04,-64.512 331.77,-64.512 126.98,0 248.84,25.6 365.57,76.8 116.74,49.152 216.07,118.784 297.99,208.896 l -258.05,273.412 c -57.35,-63.49 -118.79,-111.62 -184.32,-144.39 -65.54,-32.766 -136.19,-49.15 -211.97,-49.15 -120.83,0 -223.23,45.06 -307.2,135.17 -81.92,90.11 -122.88,200.7 -122.88,331.77 0,131.08 41.98,240.64 125.95,328.71 86.02,88.06 190.47,132.09 313.35,132.09 z"
     fill="#ffffff"
     id="path3" />
  <path
     d="M 5504.3569,2242.556 V 92.159896 L 5925.2169,0 v 1317.886 l 691.2,-675.838 h 476.16 l -749.57,734.208 795.65,866.3 h -537.6 l -675.84,-731.13 v 731.13 z"
     fill="#ffffff"
     id="path4" />
  <path
     d="m 7713.5069,2316.286 24.57,-58.37 -623.61,-1615.868 h 463.87 l 396.29,1090.558 454.65,-1090.558 h 454.66 l -737.28,1726.468 c -81.92,192.51 -177.15,329.72 -285.7,411.64 -108.54,81.92 -249.85,122.88 -423.93,122.88 -36.87,0 -72.71,-2.04 -107.52,-6.14 -32.77,-2.05 -59.39,-6.14 -79.87,-12.29 v -362.49 c 20.48,4.09 41.98,7.16 64.51,9.21 22.53,2.05 50.17,3.07 82.94,3.07 75.78,0 139.27,-18.43 190.47,-55.29 53.24,-36.87 95.23,-91.14 125.95,-162.82 z"
     fill="#ffffff"
     id="path5" />
  <path
     d="M 9721.0069,2242.556 V 92.159896 h 236.55 V 2030.596 h 1281.0401 v 211.96 z"
     fill="#ffffff"
     id="path6" />
  <path
     d="m 11645.697,408.576 c -41,0 -76.8,-15.36 -107.6,-46.08 -30.7,-30.72 -46,-66.56 -46,-107.52 0,-43.008 15.3,-78.848 46,-107.52 30.8,-30.72 66.6,-46.08 107.6,-46.08 43,0 78.8,15.36 107.5,46.08 30.7,28.672 46.1,64.512 46.1,107.52 0,40.96 -15.4,76.8 -46.1,107.52 -28.7,30.72 -64.5,46.08 -107.5,46.08 z m 113.6,294.912 v 1539.068 h -227.3 V 703.488 Z"
     fill="#ffffff"
     id="path7" />
  <path
     d="M 12146.997,2242.556 V 703.488 h 227.3 v 181.248 c 59.4,-69.632 130.1,-121.856 212,-156.672 81.9,-36.864 173.1,-55.296 273.4,-55.296 174.1,0 316.4,55.296 427,165.888 110.6,110.592 165.9,253.95 165.9,430.08 v 973.82 h -224.3 v -927.74 c 0,-135.17 -38.9,-242.69 -116.7,-322.56 -77.8,-79.872 -182.3,-119.808 -313.3,-119.808 -92.2,0 -175.1,20.48 -248.9,61.44 -71.6,40.96 -130,99.328 -175.1,175.108 v 1133.56 z"
     fill="#ffffff"
     id="path8" />
  <path
     d="m 14036.097,703.488 v 927.748 c 0,135.16 38.9,242.68 116.8,322.56 77.8,79.87 182.2,119.8 313.3,119.8 92.2,0 174.1,-20.48 245.8,-61.44 73.7,-43 133.1,-102.4 178.1,-178.17 V 703.488 h 227.4 v 1539.068 h -227.4 v -178.17 c -59.4,69.63 -130,121.85 -211.9,156.67 -79.9,34.82 -170,52.22 -270.4,52.22 -176.1,0 -319.5,-55.29 -430.1,-165.88 -110.5,-110.6 -165.8,-253.96 -165.8,-430.08 V 703.488 Z"
     fill="#ffffff"
     id="path9" />
  <path
     d="m 15325.797,2242.556 605.2,-792.57 -574.5,-746.498 h 270.4 l 436.2,577.538 436.2,-577.538 h 261.2 l -568.4,743.428 608.3,795.64 h -270.3 l -470.1,-626.68 -476.1,626.68 z"
     fill="#ffffff"
     id="path10" />
</svg>
