<svg width="18065" height="2904" viewBox="0 0 18065 2904" fill="none" xmlns="http://www.w3.org/2000/svg">
<path d="M0.203125 2242.66V92.2639H1050.83C1159.37 92.2639 1258.7 108.648 1348.81 141.416C1440.97 174.184 1519.82 220.264 1585.36 279.656C1650.89 337 1702.09 406.632 1738.96 488.552C1775.82 570.472 1794.25 660.584 1794.25 758.888C1794.25 894.056 1755.34 1014.89 1677.52 1121.38C1601.74 1227.88 1500.36 1306.73 1373.39 1357.93L1849.55 2242.66H1351.88L931.019 1419.37H445.643V2242.66H0.203125ZM1010.89 476.264H445.643V1053.8H1010.89C1111.24 1053.8 1191.12 1027.18 1250.51 973.928C1311.95 920.68 1342.67 851.048 1342.67 765.032C1342.67 679.016 1311.95 609.384 1250.51 556.136C1191.12 502.888 1111.24 476.264 1010.89 476.264Z" fill="white"/>
<path d="M1890.83 1443.94C1890.83 1327.21 1912.33 1218.66 1955.34 1118.31C2000.4 1015.91 2060.81 927.848 2136.59 854.12C2214.41 778.344 2305.55 718.952 2410 675.944C2514.44 632.936 2626.06 611.432 2744.84 611.432C2863.63 611.432 2975.24 632.936 3079.69 675.944C3184.14 718.952 3274.25 778.344 3350.03 854.12C3427.85 927.848 3488.27 1015.91 3531.28 1118.31C3576.33 1218.66 3598.86 1327.21 3598.86 1443.94C3598.86 1560.68 3576.33 1670.25 3531.28 1772.65C3488.27 1873 3427.85 1960.04 3350.03 2033.77C3274.25 2107.5 3184.14 2165.86 3079.69 2208.87C2975.24 2251.88 2863.63 2273.38 2744.84 2273.38C2626.06 2273.38 2514.44 2251.88 2410 2208.87C2305.55 2165.86 2214.41 2107.5 2136.59 2033.77C2060.81 1960.04 2000.4 1873 1955.34 1772.65C1912.33 1670.25 1890.83 1560.68 1890.83 1443.94ZM2744.84 1907.82C2867.72 1907.82 2972.17 1862.76 3058.19 1772.65C3144.2 1682.54 3187.21 1572.97 3187.21 1443.94C3187.21 1312.87 3144.2 1202.28 3058.19 1112.17C2972.17 1022.06 2867.72 977 2744.84 977C2621.96 977 2517.52 1022.06 2431.5 1112.17C2345.48 1202.28 2302.48 1312.87 2302.48 1443.94C2302.48 1572.97 2345.48 1682.54 2431.5 1772.65C2517.52 1862.76 2621.96 1907.82 2744.84 1907.82Z" fill="white"/>
<path d="M4652.92 1904.74C4724.6 1904.74 4791.16 1890.41 4852.6 1861.74C4916.08 1833.06 4976.5 1788.01 5033.84 1726.57L5285.75 1987.69C5203.83 2077.8 5105.52 2148.46 4990.84 2199.66C4876.15 2248.81 4757.36 2273.38 4634.48 2273.38C4517.75 2273.38 4407.16 2251.88 4302.71 2208.87C4200.31 2165.86 4111.22 2107.5 4035.44 2033.77C3961.72 1960.04 3903.35 1873 3860.34 1772.65C3817.33 1670.25 3795.83 1560.68 3795.83 1443.94C3795.83 1327.21 3817.33 1218.66 3860.34 1118.31C3903.35 1015.91 3961.72 927.848 4035.44 854.12C4111.22 778.344 4200.31 718.952 4302.71 675.944C4407.16 632.936 4517.75 611.432 4634.48 611.432C4761.46 611.432 4883.32 637.032 5000.05 688.232C5116.79 737.384 5216.12 807.016 5298.04 897.128L5039.99 1170.54C4982.64 1107.05 4921.2 1058.92 4855.67 1026.15C4790.13 993.384 4719.48 977 4643.7 977C4522.87 977 4420.47 1022.06 4336.5 1112.17C4254.58 1202.28 4213.62 1312.87 4213.62 1443.94C4213.62 1575.02 4255.6 1684.58 4339.57 1772.65C4425.59 1860.71 4530.04 1904.74 4652.92 1904.74Z" fill="white"/>
<path d="M5504.56 2242.66V92.2639L5925.42 0.104004V1317.99L6616.62 642.152H7092.78L6343.21 1376.36L7138.86 2242.66H6601.26L5925.42 1511.53V2242.66H5504.56Z" fill="white"/>
<path d="M7713.71 2316.39L7738.28 2258.02L7114.67 642.152H7578.54L7974.83 1732.71L8429.48 642.152H8884.14L8146.86 2368.62C8064.94 2561.13 7969.71 2698.34 7861.16 2780.26C7752.62 2862.18 7611.31 2903.14 7437.23 2903.14C7400.36 2903.14 7364.52 2901.1 7329.71 2897C7296.94 2894.95 7270.32 2890.86 7249.84 2884.71V2522.22C7270.32 2526.31 7291.82 2529.38 7314.35 2531.43C7336.88 2533.48 7364.52 2534.5 7397.29 2534.5C7473.07 2534.5 7536.56 2516.07 7587.76 2479.21C7641 2442.34 7682.99 2388.07 7713.71 2316.39Z" fill="white"/>
<path d="M9721.21 2242.66V92.2639H9957.76V2030.7H11238.8V2242.66H9721.21Z" fill="white"/>
<path d="M11645.9 408.68C11604.9 408.68 11569.1 393.32 11538.3 362.6C11507.6 331.88 11492.3 296.04 11492.3 255.08C11492.3 212.072 11507.6 176.232 11538.3 147.56C11569.1 116.84 11604.9 101.48 11645.9 101.48C11688.9 101.48 11724.7 116.84 11753.4 147.56C11784.1 176.232 11799.5 212.072 11799.5 255.08C11799.5 296.04 11784.1 331.88 11753.4 362.6C11724.7 393.32 11688.9 408.68 11645.9 408.68ZM11759.5 703.592V2242.66H11532.2V703.592H11759.5Z" fill="white"/>
<path d="M12147.2 2242.66V703.592H12374.5V884.84C12433.9 815.208 12504.6 762.984 12586.5 728.168C12668.4 691.304 12759.6 672.872 12859.9 672.872C13034 672.872 13176.3 728.168 13286.9 838.76C13397.5 949.352 13452.8 1092.71 13452.8 1268.84V2242.66H13228.5V1314.92C13228.5 1179.75 13189.6 1072.23 13111.8 992.36C13034 912.488 12929.5 872.552 12798.5 872.552C12706.3 872.552 12623.4 893.032 12549.6 933.992C12478 974.952 12419.6 1033.32 12374.5 1109.1V2242.66H12147.2Z" fill="white"/>
<path d="M14036.3 703.592V1631.34C14036.3 1766.5 14075.2 1874.02 14153.1 1953.9C14230.9 2033.77 14335.3 2073.7 14466.4 2073.7C14558.6 2073.7 14640.5 2053.22 14712.2 2012.26C14785.9 1969.26 14845.3 1909.86 14890.3 1834.09V703.592H15117.7V2242.66H14890.3V2064.49C14830.9 2134.12 14760.3 2186.34 14678.4 2221.16C14598.5 2255.98 14508.4 2273.38 14408 2273.38C14231.9 2273.38 14088.5 2218.09 13977.9 2107.5C13867.4 1996.9 13812.1 1853.54 13812.1 1677.42V703.592H14036.3Z" fill="white"/>
<path d="M15326 2242.66L15931.2 1450.09L15356.7 703.592H15627.1L16063.3 1281.13L16499.5 703.592H16760.7L16192.3 1447.02L16800.6 2242.66H16530.3L16060.2 1615.98L15584.1 2242.66H15326Z" fill="white"/>
<path d="M17001.3 613.309V279.485H16890.7V214.973H17001.3V84.9254L17076.1 65.4694V214.973H17230.7V279.485H17076.1V593.853C17076.1 621.16 17082.2 640.957 17094.5 653.245C17106.8 664.851 17126.9 670.653 17154.9 670.653C17169.3 670.653 17181.9 669.629 17192.8 667.581C17204.4 665.533 17216.7 662.12 17229.7 657.341V723.901C17216.7 728.68 17202 732.093 17185.7 734.141C17170 736.189 17154.6 737.213 17139.6 737.213C17095.2 737.213 17061.1 726.632 17037.2 705.469C17013.3 684.307 17001.3 653.587 17001.3 613.309Z" fill="white"/>
<path d="M17311.8 727.997V214.973H17387.6V271.293C17406.7 249.448 17428.9 233.064 17454.2 222.141C17479.4 210.536 17507.4 204.733 17538.2 204.733C17573.6 204.733 17605.4 213.267 17633.4 230.333C17662.1 246.717 17684.2 269.245 17699.9 297.917C17721.1 266.515 17746.4 243.304 17775.7 228.285C17805.8 212.584 17839.2 204.733 17876.1 204.733C17931.4 204.733 17976.4 223.165 18011.2 260.029C18046.7 296.893 18064.5 344.68 18064.5 403.389V727.997H17989.7V418.749C17989.7 373.693 17977.8 337.853 17953.9 311.229C17930 284.605 17897.6 271.293 17856.6 271.293C17828.6 271.293 17803 278.461 17779.8 292.797C17756.6 307.133 17736.8 327.955 17720.4 355.261C17721.8 362.771 17722.8 370.621 17723.5 378.813C17724.9 386.323 17725.5 394.515 17725.5 403.389V727.997H17650.8V418.749C17650.8 373.693 17638.8 337.853 17614.9 311.229C17591.1 284.605 17559 271.293 17518.7 271.293C17491.4 271.293 17466.5 277.779 17443.9 290.749C17422.1 303.037 17403.3 321.469 17387.6 346.045V727.997H17311.8Z" fill="white"/>
</svg>
