<svg width="2560" height="1080" viewBox="0 0 2560 1080" fill="none" xmlns="http://www.w3.org/2000/svg">
<rect width="2560" height="1080" fill="white"/>
<path d="M1098.33 556.329C1100.06 551.373 1101 546.046 1101 540.5C1101 513.99 1079.51 492.5 1053 492.5C1026.49 492.5 1005 513.99 1005 540.5C1005 553.617 1010.26 565.505 1018.79 574.169L1067.48 525.479L1098.33 556.329Z" fill="#10B981"/>
<path d="M1089.56 571.603L1067.48 549.521L1032.9 584.101C1039.01 586.925 1045.82 588.5 1053 588.5C1067.64 588.5 1080.76 581.942 1089.56 571.603Z" fill="#10B981"/>
<path d="M1130.54 565V514.6H1155.16C1157.7 514.6 1160.03 514.984 1162.14 515.752C1164.3 516.52 1166.15 517.6 1167.69 518.992C1169.22 520.336 1170.42 521.968 1171.29 523.888C1172.15 525.808 1172.58 527.92 1172.58 530.224C1172.58 533.392 1171.67 536.224 1169.85 538.72C1168.07 541.216 1165.7 543.064 1162.72 544.264L1173.88 565H1162.22L1152.35 545.704H1140.98V565H1130.54ZM1154.22 523.6H1140.98V537.136H1154.22C1156.58 537.136 1158.45 536.512 1159.84 535.264C1161.28 534.016 1162 532.384 1162 530.368C1162 528.352 1161.28 526.72 1159.84 525.472C1158.45 524.224 1156.58 523.6 1154.22 523.6ZM1174.85 546.28C1174.85 543.544 1175.35 541 1176.36 538.648C1177.42 536.248 1178.83 534.184 1180.61 532.456C1182.43 530.68 1184.57 529.288 1187.02 528.28C1189.46 527.272 1192.08 526.768 1194.86 526.768C1197.65 526.768 1200.26 527.272 1202.71 528.28C1205.16 529.288 1207.27 530.68 1209.05 532.456C1210.87 534.184 1212.29 536.248 1213.3 538.648C1214.35 541 1214.88 543.544 1214.88 546.28C1214.88 549.016 1214.35 551.584 1213.3 553.984C1212.29 556.336 1210.87 558.376 1209.05 560.104C1207.27 561.832 1205.16 563.2 1202.71 564.208C1200.26 565.216 1197.65 565.72 1194.86 565.72C1192.08 565.72 1189.46 565.216 1187.02 564.208C1184.57 563.2 1182.43 561.832 1180.61 560.104C1178.83 558.376 1177.42 556.336 1176.36 553.984C1175.35 551.584 1174.85 549.016 1174.85 546.28ZM1194.86 557.152C1197.74 557.152 1200.19 556.096 1202.21 553.984C1204.22 551.872 1205.23 549.304 1205.23 546.28C1205.23 543.208 1204.22 540.616 1202.21 538.504C1200.19 536.392 1197.74 535.336 1194.86 535.336C1191.98 535.336 1189.54 536.392 1187.52 538.504C1185.5 540.616 1184.5 543.208 1184.5 546.28C1184.5 549.304 1185.5 551.872 1187.52 553.984C1189.54 556.096 1191.98 557.152 1194.86 557.152ZM1239.58 557.08C1241.26 557.08 1242.82 556.744 1244.26 556.072C1245.75 555.4 1247.17 554.344 1248.51 552.904L1254.42 559.024C1252.5 561.136 1250.19 562.792 1247.5 563.992C1244.82 565.144 1242.03 565.72 1239.15 565.72C1236.42 565.72 1233.82 565.216 1231.38 564.208C1228.98 563.2 1226.89 561.832 1225.11 560.104C1223.38 558.376 1222.02 556.336 1221.01 553.984C1220 551.584 1219.5 549.016 1219.5 546.28C1219.5 543.544 1220 541 1221.01 538.648C1222.02 536.248 1223.38 534.184 1225.11 532.456C1226.89 530.68 1228.98 529.288 1231.38 528.28C1233.82 527.272 1236.42 526.768 1239.15 526.768C1242.13 526.768 1244.98 527.368 1247.72 528.568C1250.46 529.72 1252.78 531.352 1254.7 533.464L1248.66 539.872C1247.31 538.384 1245.87 537.256 1244.34 536.488C1242.8 535.72 1241.14 535.336 1239.37 535.336C1236.54 535.336 1234.14 536.392 1232.17 538.504C1230.25 540.616 1229.29 543.208 1229.29 546.28C1229.29 549.352 1230.27 551.92 1232.24 553.984C1234.26 556.048 1236.7 557.08 1239.58 557.08ZM1259.54 565V514.6L1269.41 512.44V543.328L1285.61 527.488H1296.77L1279.2 544.696L1297.85 565H1285.25L1269.41 547.864V565H1259.54ZM1311.32 566.728L1311.9 565.36L1297.28 527.488H1308.15L1317.44 553.048L1328.1 527.488H1338.75L1321.47 567.952C1319.55 572.464 1317.32 575.68 1314.78 577.6C1312.23 579.52 1308.92 580.48 1304.84 580.48C1303.98 580.48 1303.14 580.432 1302.32 580.336C1301.55 580.288 1300.93 580.192 1300.45 580.048V571.552C1300.93 571.648 1301.43 571.72 1301.96 571.768C1302.49 571.816 1303.14 571.84 1303.91 571.84C1305.68 571.84 1307.17 571.408 1308.37 570.544C1309.62 569.68 1310.6 568.408 1311.32 566.728ZM1358.37 565V514.6H1363.92V560.032H1393.94V565H1358.37ZM1403.48 522.016C1402.52 522.016 1401.68 521.656 1400.96 520.936C1400.24 520.216 1399.88 519.376 1399.88 518.416C1399.88 517.408 1400.24 516.568 1400.96 515.896C1401.68 515.176 1402.52 514.816 1403.48 514.816C1404.49 514.816 1405.33 515.176 1406 515.896C1406.72 516.568 1407.08 517.408 1407.08 518.416C1407.08 519.376 1406.72 520.216 1406 520.936C1405.33 521.656 1404.49 522.016 1403.48 522.016ZM1406.15 528.928V565H1400.82V528.928H1406.15ZM1415.23 565V528.928H1420.56V533.176C1421.95 531.544 1423.61 530.32 1425.53 529.504C1427.45 528.64 1429.58 528.208 1431.94 528.208C1436.02 528.208 1439.35 529.504 1441.94 532.096C1444.54 534.688 1445.83 538.048 1445.83 542.176V565H1440.58V543.256C1440.58 540.088 1439.66 537.568 1437.84 535.696C1436.02 533.824 1433.57 532.888 1430.5 532.888C1428.34 532.888 1426.39 533.368 1424.66 534.328C1422.98 535.288 1421.62 536.656 1420.56 538.432V565H1415.23ZM1459.51 528.928V550.672C1459.51 553.84 1460.42 556.36 1462.24 558.232C1464.07 560.104 1466.52 561.04 1469.59 561.04C1471.75 561.04 1473.67 560.56 1475.35 559.6C1477.08 558.592 1478.47 557.2 1479.52 555.424V528.928H1484.85V565H1479.52V560.824C1478.13 562.456 1476.48 563.68 1474.56 564.496C1472.68 565.312 1470.57 565.72 1468.22 565.72C1464.09 565.72 1460.73 564.424 1458.14 561.832C1455.55 559.24 1454.25 555.88 1454.25 551.752V528.928H1459.51ZM1489.74 565L1503.92 546.424L1490.46 528.928H1496.79L1507.02 542.464L1517.24 528.928H1523.36L1510.04 546.352L1524.3 565H1517.96L1506.94 550.312L1495.78 565H1489.74Z" fill="black"/>
<path d="M1529 527.812V519.988H1526.41V518.476H1529V515.428L1530.75 514.972V518.476H1534.38V519.988H1530.75V527.356C1530.75 527.996 1530.9 528.46 1531.18 528.748C1531.47 529.02 1531.94 529.156 1532.6 529.156C1532.94 529.156 1533.23 529.132 1533.49 529.084C1533.76 529.036 1534.05 528.956 1534.35 528.844V530.404C1534.05 530.516 1533.7 530.596 1533.32 530.644C1532.95 530.692 1532.59 530.716 1532.24 530.716C1531.2 530.716 1530.4 530.468 1529.84 529.972C1529.28 529.476 1529 528.756 1529 527.812ZM1536.28 530.5V518.476H1538.05V519.796C1538.5 519.284 1539.02 518.9 1539.61 518.644C1540.21 518.372 1540.86 518.236 1541.58 518.236C1542.41 518.236 1543.16 518.436 1543.81 518.836C1544.49 519.22 1545.01 519.748 1545.37 520.42C1545.87 519.684 1546.46 519.14 1547.15 518.788C1547.85 518.42 1548.64 518.236 1549.5 518.236C1550.8 518.236 1551.85 518.668 1552.67 519.532C1553.5 520.396 1553.92 521.516 1553.92 522.892V530.5H1552.17V523.252C1552.17 522.196 1551.89 521.356 1551.33 520.732C1550.77 520.108 1550.01 519.796 1549.05 519.796C1548.39 519.796 1547.79 519.964 1547.25 520.3C1546.7 520.636 1546.24 521.124 1545.85 521.764C1545.89 521.94 1545.91 522.124 1545.93 522.316C1545.96 522.492 1545.97 522.684 1545.97 522.892V530.5H1544.22V523.252C1544.22 522.196 1543.94 521.356 1543.38 520.732C1542.82 520.108 1542.07 519.796 1541.13 519.796C1540.49 519.796 1539.9 519.948 1539.37 520.252C1538.86 520.54 1538.42 520.972 1538.05 521.548V530.5H1536.28Z" fill="black"/>
</svg>
